<svg xmlns="http://www.w3.org/2000/svg" enable-background="new 0 0 24 24" viewBox="0 0 24 24" id="garmin">
  <path fill="#1779BD" d="M0.29,21.514C0.596,22.123,1.214,22.5,1.984,22.5h20.032c0.767,0,1.383-0.302,1.693-0.986c0.387-0.602,0.387-1.363,0-1.97L13.69,2.484C13.386,1.879,12.77,1.5,11.999,1.5c-0.693,0-1.31,0.379-1.694,0.984L0.29,19.544C-0.097,20.146-0.097,20.913,0.29,21.514L0.29,21.514z"></path>
  <path fill="#1469A5" d="M11.999,1.5c-0.693,0-1.31,0.379-1.694,0.984L0.29,19.544C0.102,19.837,0.005,20.169,0,20.502v0.054c0.005,0.333,0.102,0.665,0.29,0.957C0.596,22.123,1.214,22.5,1.984,22.5H12L11.999,1.5L11.999,1.5L11.999,1.5z"></path>
</svg>
