<?xml version="1.0" encoding="UTF-8"?>
<svg id="Warstwa_1" data-name="Warstwa 1" xmlns="http://www.w3.org/2000/svg" xmlns:xlink="http://www.w3.org/1999/xlink" viewBox="0 0 90 90">
  <defs>
    <style>
      .cls-1 {
        fill: #fff;
      }

      .cls-1, .cls-2 {
        fill-rule: evenodd;
        stroke-width: 0px;
      }

      .cls-2 {
        fill: url(#Gradient_bez_nazwy);
      }
    </style>
    <linearGradient id="Gradient_bez_nazwy" data-name="Gradient bez nazwy" x1="-3.92" y1="95.92" x2="-2.99" y2="94.99" gradientTransform="translate(356 8636) scale(90 -90)" gradientUnits="userSpaceOnUse">
      <stop offset="0" stop-color="#00aced"/>
      <stop offset="1" stop-color="#03a0db"/>
    </linearGradient>
  </defs>
  <path class="cls-2" d="m11.55,0h66.89c6.38,0,11.55,5.17,11.55,11.55v66.89c0,6.38-5.17,11.55-11.55,11.55H11.55c-6.38,0-11.55-5.17-11.55-11.55V11.55C0,5.17,5.17,0,11.55,0Z"/>
  <path class="cls-1" d="m50.3,35.21c1.67-.34,2.97-1.54,4.26-1.89.69-.18,1.43-.22,2.23-.11.41.06.82.07,1.22,0l2.18-.38c.53-.03,1.15-.16,1.83-.41,1.03-.37.52-.25,1.94-.95,1.42-.69,1.85-1.02,2.84-1.38.98-.36.77-.16,2.13-.44,1.37-.28,2.08-.47,2.73-.56s.71-.1,1.34,0,.8-.06,1.2.42c.39.47.27.92.2,1.26-.07.34.04.47-.59.58-.63.11-.99-.21-1.5-.21s-.03-.23-1.01.21c-.98.44-1.15.78-1.84,1.07-.69.29-.31.07-1.54.35-1.23.28-1.33.22-2.46.55-1.14.33-.66.24-2.2.79l-2.95,1.06c-.08.03-.17.06-.25.1-1.11.49-2.07.88-2.88,1.15-1.26.42-.93-.54-2.62.67-1.69,1.21-2,1.95-2.65,3.11-.65,1.16-.09,1.1-.52,2.53-.43,1.43-.95,2.33-1.09,2.83-.09.34-.09.7,0,1.04l1.44,2.2c.11.17.21.35.3.54.19.44.39.89.59,1.36.37.86.06,1.1.73,1.73.36.35.87.6,1.53.77.31.08.61.17.9.32l1.18.59c.14.07.27.15.4.23l1.29.86,1.52,1.12,1.97,1.58c.06.05.13.1.19.14l1.29.91c.32.23.68.41,1.06.52l1.43.45c.07.02.15.05.22.08l2.06.79c.09.03.18.07.28.09l2.68.8c.2.06.4.14.59.23l1.87.91,1.2.51c.25.11.48.24.7.39l.87.61c.06.04.12.08.18.12l1.02.64c.07.05.15.09.22.13l1.04.56c.13.07.27.13.4.19l1.27.5.62.24c.44.17.92.26,1.4.26h1.45l.82.23.69.65.27.6v1.15l-.68.2-1.1-.36h-.9l-.81-.29h-2.3l-.94-.25-.99-.66c-.11-.07-.22-.14-.34-.2l-.82-.43c-.18-.09-.36-.17-.55-.24l-.9-.31c-.18-.06-.35-.13-.51-.22l-.2-.1c-.35-.18-.73-.31-1.12-.37l-.34-.06c-.31-.05-.62-.14-.91-.27l-.68-.3c-.15-.06-.3-.12-.45-.17l-1.96-.58-.93-.21-1.62-.61c-.08-.03-.16-.06-.25-.08l-1.97-.59-2.26-.62c-.13-.04-.25-.08-.38-.12l-1.87-.73-2.39-.93-2.27-.9c-.11-.04-.22-.08-.34-.12l-1.83-.54-.97-.25h-2.27c-.17,0-.35-.01-.52-.04l-1.35-.19c-.57-.08-1.14-.03-1.69.15l-.24.08-.84.25-.98.59-2.37,1.47-1.55.95c-.29.18-.59.31-.91.41l-.44.13c-.14.04-.28.09-.42.15l-1.56.67-1.42.56c-.12.05-.23.1-.34.15l-1.02.52c-.2.1-.39.22-.56.35l-.77.58c-.12.09-.25.18-.39.25l-.97.56c-.08.04-.15.08-.23.12l-.6.3c-.2.1-.38.21-.56.34l-.61.44c-.32.23-.68.41-1.06.54l-.6.2c-.15.05-.3.09-.45.12l-.87.17c-.1.02-.21.05-.31.08l-1.4.4-1.58.5-1,.28-.54.14c-.32.08-.65.13-.98.13h-1.06l-.86.2h-1.99l-.64.29-.63.35-.46.3-.86.58-.45.67-.44.76-.51.52-.52.25h-1.02l-.39-.25-.42-.21-.24-.31-.48-.24h-.38l-.51.24h-.65l-.74.31h-1.12l-.66-.16s-.61.09-.61-.15c0-.16.2-.49.61-.99l.85-.36c.12-.05.25-.1.38-.14l.44-.14c.27-.08.53-.19.77-.33l1.24-.71.86-.49.72-.38c.22-.11.45-.21.69-.28l.42-.12c.17-.05.33-.09.51-.11l1.05-.16.88-.45,1.06-.25.8-.24.81-.36c.24-.11.5-.19.76-.25l.41-.09c.32-.07.64-.18.93-.33l2.25-1.16c1.68-.77,2.58-1.16,2.7-1.16s.47-.18,1.06-.53l2.07-1.4c.21-.14.4-.3.58-.48l.09-.09c.36-.37.79-.66,1.27-.85l.28-.11c.37-.15.72-.37,1.03-.63l.56-.47c.19-.16.4-.31.61-.43l1.63-.91c.11-.06.22-.13.32-.2l1.82-1.28c.1-.07.2-.14.31-.2l1.76-1c.13-.07.25-.14.39-.19h0c1.2-.51,2.06-1.6,2.28-2.88l.06-.34.33-2.16.19-1.69c.02-.14.02-.29.02-.44v-.73c0-.31.04-.61.11-.91v-.04c.13-.5.15-1.02.08-1.53-.13-.82-.26-1.63-.4-2.45-.13-.67-.14-.6-.33-1.34-.2-.74-.41-.65-.41-1.47s.15-1.1.41-1.64c.26-.54.69-.26.85-.98.16-.72-.16-.64-.3-1.55-.14-.91.07-1.13-.22-1.82-.29-.69.28.61-1.07-1.26-.89-1.24-1.75-2.51-2.57-3.8l-2.08-3-1.96-3.01c-.53-.73-1.05-1.47-1.55-2.22-.85-1.27-1.42-2.26-1.66-2.57s-.24-.14-.71-.48c-.47-.34-.67-.51-.92-.7-.24-.19-.24,0-.72-.54-.48-.54-.38-1.36-.35-1.59.03-.23-.08-.31.23-.43.31-.12.63,0,.84,0h.92s.33.29.47.43.08.12.24.3.11.2.22.54c.11.33.08.33.14.53.05.2.34.58.47.76.13.18.58.7.58.7l2.56,3.05,1.2,1.37,2.08,2.5c.88,1.05,1.64,1.95,2.27,2.7.94,1.12,1.38,1.61,1.9,2.24.51.62.58.76.99,1.26.41.5.48.52.86.99.38.47.43.69.71.97.27.27.58.39.71.45.13.06.11,0,.32,0s.46-.12.64-.21c.19-.09.09-.01.31-.24.21-.23.19-.24.37-.48s.25-.21.33-.48,0-.36,0-.57.1-.12,0-.42-.17-.35-.33-.58c-.16-.24-.2-.22-.37-.45s-.21-.33-.31-.49-.12-.04-.17-.32c-.05-.28-.17-.33,0-.57.17-.25.41-.26.65-.38.24-.12.29-.19.52-.19s.61-.15.92-.25c.31-.11.36-.12.59-.26.22-.14.11-.11.37-.34.26-.23.2-.26.54-.45.34-.19.42-.15.78-.28.35-.13.31-.2.7-.27.4-.07.44-.07.84,0s.36.14.75.27c.38.14.53.17.77.28.24.1.12,0,.45.25.33.25.35.14.61.54.27.4.26.48.33.87s0,.16,0,.79.06.95,0,1.26c-.06.31-.1.19-.33.58-.23.4-.11.41-.46.8-.35.38-.61.45-.88.68s-.09.28-.49.48-.45,0-.96.24c-.51.24-.65.2-.88.63-.23.43-1.67,1.35,0,1.01h0Z"/>
</svg>